<svg width="16" height="20" viewBox="0 0 16 20" fill="none" xmlns="http://www.w3.org/2000/svg">
<path d="M11.2727 19.8182H3.63637V18.7273H2.54547V17.6364H1.45456V16.5455H0.363647V11.091H1.45456V8.90916H2.54547V7.81825H3.63637V6.72734H4.72728V7.81825H5.81819V10.0001H6.9091V7.81825H8.00001V3.45461H6.9091V2.3637H5.81819V1.27279H4.72728V0.181885H8.00001V1.27279H10.1818V2.3637H11.2727V3.45461H12.3636V4.54552H13.4546V5.63643H14.5455V7.81825H15.6364V15.4546H14.5455V17.6364H13.4546V18.7273H11.2727M9.09092 17.6364V16.5455H11.2727V15.4546H12.3636V13.2728H13.4546V8.90916H12.3636V6.72734H11.2727V5.63643H10.1818V10.0001H9.09092V12.1819H8.00001V13.2728H6.9091V14.3637H5.81819V13.2728H4.72728V10.0001H3.63637V11.091H2.54547V15.4546H3.63637V16.5455H4.72728V17.6364H9.09092Z" fill="white"/>
</svg>
