<svg width="50" height="26" viewBox="0 0 50 26" fill="none" xmlns="http://www.w3.org/2000/svg">
<path d="M3.86351 13.4801C3.67553 13.4248 3.61565 13.2813 3.68388 13.0496C3.79331 12.678 4.26343 11.9042 5.09426 10.7284C5.1272 10.6811 5.1501 10.6356 5.16298 10.5919C4.29891 11.1546 3.63761 11.4159 3.17907 11.3759L2.84423 11.3272C2.46644 11.2872 2.15951 11.2324 1.92344 11.1629C1.73546 11.1076 1.57552 11.0296 1.44362 10.929C1.28369 10.8106 1.19875 10.6312 1.18879 10.3907L1.17922 10.1813L1.34915 9.60421C1.37565 9.57876 1.4109 9.5155 1.45491 9.41444C1.63613 8.91197 2.07819 8.24164 2.78109 7.40345C3.57172 6.47708 4.45117 5.63625 5.41946 4.88096C6.39211 4.12696 7.34465 3.53807 8.27708 3.11428C9.21079 2.68612 10.0163 2.50764 10.6937 2.57885C10.7069 2.58271 10.7184 2.58374 10.7285 2.58194C10.7547 2.58967 10.78 2.59238 10.8045 2.59007L10.9553 2.63448C10.9627 2.64143 10.9811 2.65159 11.0104 2.66498C11.2028 2.72162 11.3375 2.86106 11.4146 3.08329C11.6307 3.68851 11.7485 4.0225 11.768 4.08526C11.805 4.23392 11.8023 4.38039 11.7598 4.52465C11.6825 4.78696 11.4106 5.08931 10.9439 5.43173C10.8866 5.48135 10.8503 5.5158 10.8351 5.53508C10.8243 5.55565 10.8082 5.56992 10.7869 5.57789C10.7712 5.58277 10.7074 5.57349 10.5956 5.55005C10.4605 5.52454 10.1836 5.48099 9.76464 5.41938C9.70524 5.41139 9.65586 5.4016 9.61651 5.39002C9.53345 5.36556 9.49965 5.3271 9.51509 5.27464C9.53827 5.19595 9.74524 4.99323 10.136 4.66647C10.278 4.52301 10.3715 4.37478 10.4166 4.22177C10.4514 4.10373 10.4607 3.99958 10.4445 3.9093C10.4327 3.82031 10.4006 3.76809 10.3481 3.75264L10.3068 3.74762C9.45421 3.90036 8.60527 4.21809 7.76001 4.7008C6.91475 5.18351 6.13337 5.73967 5.41588 6.36928C4.69839 6.99889 4.0987 7.61567 3.6168 8.21964C3.13927 8.82489 2.84708 9.30894 2.74023 9.67179C2.65269 9.96906 2.70291 10.1454 2.89089 10.2007C3.19691 10.2908 3.82773 10.0443 4.78336 9.46105C5.80896 8.81766 6.70518 8.22643 7.47201 7.68737C7.29278 7.63459 6.88978 7.61568 6.26302 7.63065C5.86232 7.63618 5.59293 7.62336 5.45483 7.5922C5.41549 7.58061 5.38334 7.56877 5.3584 7.55667C5.33912 7.54149 5.31199 7.52875 5.27701 7.51846L5.142 7.49295C5.1114 7.48394 5.1006 7.46413 5.10962 7.43353C5.13021 7.36358 5.3574 7.05992 5.79119 6.52255C5.82206 6.49839 5.9486 6.48814 6.1708 6.49182C6.39738 6.49678 6.94735 6.53283 7.82072 6.59999C8.50507 6.66374 8.95653 6.72779 9.17512 6.79216C9.29752 6.82821 9.37981 6.87144 9.42197 6.92186C9.4685 6.97357 9.50989 7.04277 9.54612 7.12945C9.59391 7.25754 9.67694 7.40313 9.79519 7.56623C9.86511 7.66758 9.92847 7.767 9.98528 7.86449C10.0465 7.96327 10.0687 8.04108 10.0519 8.09791C10.0404 8.13725 10.0029 8.15949 9.93966 8.16461C9.49189 8.18478 9.19073 8.19111 9.03617 8.1836C8.96415 8.18615 8.89214 8.1887 8.82013 8.19125C8.74812 8.1938 8.65049 8.26719 8.52726 8.41143C7.82079 9.1488 7.14644 9.97876 6.50421 10.9013C5.86635 11.8252 5.37486 12.6472 5.02975 13.3675C5.01172 13.4287 5.00168 13.4709 4.99961 13.494C5.00192 13.5184 4.99986 13.5416 4.99342 13.5634C4.98183 13.6028 4.94415 13.6178 4.88037 13.6085C4.6641 13.5686 4.4671 13.5439 4.28939 13.5343C4.11477 13.5304 3.97281 13.5123 3.86351 13.4801ZM9.74926 11.1585C9.8979 11.2023 10.1909 11.0867 10.6282 10.8116C11.0655 10.5366 11.5333 10.166 12.0316 9.69991C12.5312 9.22942 12.9695 8.71713 13.3464 8.16303C13.356 8.14683 13.3652 8.12343 13.3742 8.09282C13.3961 8.01851 13.4139 7.90972 13.4276 7.76648C13.4412 7.62323 13.4445 7.49117 13.4373 7.37029C13.4302 7.24941 13.4091 7.18382 13.3741 7.17352L13.3525 7.17429C13.1578 7.25472 13.0527 7.32117 13.0373 7.37363C13.0283 7.40423 13.0492 7.44603 13.1001 7.49903C13.1752 7.58289 13.196 7.68166 13.1625 7.79532C13.1484 7.84341 13.13 7.87362 13.1073 7.88596C13.0847 7.8983 12.9723 7.90083 12.7702 7.89357C12.5518 7.87678 12.4276 7.87108 12.3975 7.87647C12.3713 7.86875 12.3153 7.8974 12.2297 7.96244C12.1031 8.05344 12.034 8.11862 12.0225 8.15796C12.0134 8.18856 12.0132 8.22174 12.0216 8.25749C12.0314 8.28887 12.0344 8.31112 12.0305 8.32423C12.0097 8.3466 11.9927 8.35586 11.9796 8.35199L11.9356 8.33192C11.8875 8.31776 11.8143 8.34847 11.7161 8.42405C11.5952 8.51196 11.3784 8.72368 11.0658 9.0592C10.2454 9.95779 9.78494 10.5776 9.68453 10.9186C9.64462 11.0541 9.6662 11.1341 9.74926 11.1585ZM8.975 12.3843C8.79139 12.3302 8.64058 12.2454 8.52257 12.1299C8.2611 11.8724 8.20696 11.4835 8.36015 10.9633C8.47601 10.5698 8.68615 10.1305 8.99055 9.64529C9.29059 9.1588 9.64193 8.67554 10.0446 8.19551C10.4516 7.71677 10.8726 7.28728 11.3076 6.90705C11.7439 6.52245 12.1604 6.22939 12.5571 6.02789C12.9594 5.82331 13.2982 5.76156 13.5736 5.84267C13.7135 5.88386 13.8318 5.9662 13.9285 6.08968C14.2316 6.46398 14.4573 6.77036 14.6056 7.00882C14.7539 7.24727 14.8206 7.48069 14.8056 7.70906C14.6022 8.39979 14.3177 9.01912 13.952 9.56706C13.5877 10.1106 13.181 10.58 12.7321 10.9751C12.2876 11.3715 11.833 11.689 11.3685 11.9275C10.9039 12.166 10.461 12.323 10.0397 12.3985C9.62281 12.4753 9.2679 12.4705 8.975 12.3843ZM13.7755 13.748C13.758 13.7429 13.7396 13.7327 13.7204 13.7175C13.5728 13.5411 13.3445 13.3242 13.0354 13.0669C13.0149 13.0561 13.0117 13.0266 13.0258 12.9785C13.0825 12.7862 13.3665 12.3378 13.878 11.6332C14.3896 10.9287 14.8725 10.3132 15.3268 9.78663C15.7856 9.26135 16.1572 8.86245 16.4417 8.58993C16.4556 8.57502 16.4715 8.55355 16.4892 8.52553C16.3743 8.49643 15.9834 8.45258 15.3165 8.39398L14.9103 8.34562C14.871 8.33404 14.8355 8.30934 14.8038 8.27152C14.7481 8.20283 14.6214 7.96361 14.4237 7.55385C14.306 7.32441 14.2497 7.20094 14.2549 7.18346C14.2626 7.15723 14.3106 7.1476 14.3988 7.15457C14.487 7.16154 14.6238 7.1567 14.8092 7.14005C15.3481 7.08493 16.4398 7.16887 18.0844 7.39187C18.8986 7.49861 19.4871 7.60541 19.85 7.71226C20.0729 7.77791 20.1891 7.84302 20.1986 7.90757C20.1374 8.05106 20.0405 8.26719 19.9079 8.55596C19.6946 9.00622 19.5167 9.21512 19.3742 9.18267C19.3261 9.16851 19.2849 9.1231 19.2504 9.04645C19.2314 8.9981 19.1847 8.96298 19.1104 8.94109C19.0274 8.91663 18.9067 8.89062 18.7486 8.86305C18.7067 8.8602 18.5594 8.83585 18.3069 8.78999C18.0587 8.74542 17.9205 8.73084 17.8922 8.74626C17.8696 8.7586 17.8531 8.78225 17.8428 8.81723C17.8052 8.89643 17.7363 8.98539 17.6359 9.08412C16.3792 10.2865 15.2643 11.6448 14.2911 13.1587C14.1555 13.3611 14.0485 13.5148 13.97 13.62C13.8928 13.7208 13.828 13.7635 13.7755 13.748ZM16.0169 14.6789C15.9776 14.6673 15.9523 14.6242 15.941 14.5496C15.9144 14.1237 15.8832 13.8342 15.8475 13.6812C15.8208 13.5783 15.8139 13.505 15.8268 13.4613C15.8384 13.4219 15.8906 13.3898 15.9834 13.3649C16.5236 13.2247 16.892 13.1835 17.0887 13.2414C17.1368 13.2556 17.172 13.2731 17.1944 13.2939L17.2094 13.2912C17.3433 12.8366 18.3017 11.6389 20.0846 9.6983C20.1098 9.67722 20.1282 9.64701 20.1398 9.60766C20.0496 9.62383 19.9669 9.63036 19.8918 9.62725C19.7964 9.58016 19.7028 9.54309 19.611 9.51606C19.5498 9.49804 19.5111 9.48426 19.4949 9.47474C19.4787 9.46522 19.4774 9.42922 19.491 9.36672L19.5845 9.07357L19.6571 8.80278C19.7137 8.61042 19.7659 8.47375 19.8135 8.39275C19.8667 8.30867 19.9617 8.26061 20.0982 8.24856C20.2348 8.23652 20.5264 8.24639 20.9731 8.27817C21.4744 8.30225 21.7862 8.33231 21.9086 8.36836C22.0004 8.39539 22.1031 8.46602 22.2168 8.58025C22.3042 8.68675 22.5094 8.86119 22.8323 9.10356C22.9357 9.17201 22.985 9.22217 22.9804 9.25406C22.9765 9.26718 22.9583 9.2808 22.9256 9.29494C22.6254 9.41083 22.4026 9.4901 22.257 9.53274C22.1371 9.56871 22.0332 9.60699 21.9452 9.6476C21.8573 9.68821 21.7587 9.75658 21.6497 9.85274C21.4945 9.99233 20.8535 10.7252 19.7266 12.0514C18.9172 12.977 18.5022 13.4748 18.4816 13.5447C18.4675 13.5928 18.521 13.6371 18.6421 13.6775C18.7676 13.7192 18.9405 13.8176 19.1608 13.9728C19.22 14.0139 19.2444 14.052 19.2341 14.087C19.2161 14.1482 18.9585 14.3051 18.4612 14.5578C18.2506 14.6762 18.1343 14.7323 18.1125 14.7258C18.1037 14.7233 18.0966 14.7069 18.0912 14.6768C18.0779 14.6254 18.045 14.5919 17.9925 14.5765C17.9226 14.5559 17.8746 14.5655 17.8486 14.6054C17.7979 14.6807 17.7551 14.7132 17.7201 14.7029C17.7026 14.6978 17.6844 14.671 17.6654 14.6227C17.6327 14.5561 17.5946 14.5163 17.5508 14.5034C16.9123 14.4294 16.4992 14.4527 16.3117 14.5733C16.1689 14.6547 16.0707 14.6899 16.0169 14.6789ZM21.7525 18.748C21.5645 18.6926 21.5046 18.5491 21.5728 18.3174C21.6823 17.9458 22.1524 17.1721 22.9832 15.9962C23.0161 15.9489 23.039 15.9034 23.0519 15.8597C22.1879 16.4224 21.5266 16.6837 21.068 16.6437L20.7332 16.595C20.3554 16.555 20.0485 16.5003 19.8124 16.4307C19.6244 16.3754 19.4645 16.2974 19.3326 16.1968C19.1726 16.0784 19.0877 15.899 19.0777 15.6586L19.0682 15.4491L19.2381 14.872C19.2646 14.8466 19.2998 14.7833 19.3439 14.6823C19.5251 14.1798 19.9671 13.5095 20.67 12.6713C21.4607 11.7449 22.3401 10.9041 23.3084 10.1488C24.2811 9.39478 25.2336 8.80589 26.166 8.3821C27.0997 7.95394 27.9053 7.77546 28.5827 7.84666C28.5958 7.85053 28.6074 7.85156 28.6174 7.84976C28.6436 7.85749 28.669 7.86019 28.6934 7.85789L28.8442 7.9023C28.8517 7.90925 28.8701 7.91941 28.8994 7.9328C29.0917 7.98944 29.2265 8.12888 29.3035 8.35111C29.5196 8.95633 29.6374 9.29032 29.657 9.35308C29.6939 9.50174 29.6912 9.64821 29.6487 9.79247C29.5715 10.0548 29.2995 10.3571 28.8329 10.6995C28.7755 10.7492 28.7393 10.7836 28.7241 10.8029C28.7133 10.8235 28.6972 10.8377 28.6758 10.8457C28.6601 10.8506 28.5964 10.8413 28.4845 10.8179C28.3495 10.7924 28.0725 10.7488 27.6536 10.6872C27.5942 10.6792 27.5448 10.6694 27.5055 10.6578C27.4224 10.6334 27.3886 10.5949 27.404 10.5425C27.4272 10.4638 27.6342 10.261 28.0249 9.93429C28.167 9.79083 28.2605 9.64259 28.3056 9.48959C28.3403 9.37155 28.3496 9.26739 28.3334 9.17712C28.3216 9.08813 28.2895 9.03591 28.237 9.02046L28.1958 9.01543C27.3431 9.16818 26.4942 9.48591 25.649 9.96862C24.8037 10.4513 24.0223 11.0075 23.3048 11.6371C22.5873 12.2667 21.9876 12.8835 21.5057 13.4875C21.0282 14.0927 20.736 14.5768 20.6292 14.9396C20.5416 15.2369 20.5919 15.4132 20.7798 15.4686C21.0859 15.5587 21.7167 15.3121 22.6723 14.7289C23.6979 14.0855 24.5941 13.4943 25.361 12.9552C25.1817 12.9024 24.7787 12.8835 24.152 12.8985C23.7513 12.904 23.4819 12.8912 23.3438 12.86C23.3044 12.8484 23.2723 12.8366 23.2473 12.8245C23.2281 12.8093 23.2009 12.7966 23.166 12.7863L23.0309 12.7608C23.0003 12.7518 22.9895 12.732 22.9986 12.7013C23.0192 12.6314 23.2463 12.3277 23.6801 11.7904C23.711 11.7662 23.8375 11.756 24.0597 11.7596C24.2863 11.7646 24.8363 11.8007 25.7097 11.8678C26.394 11.9316 26.8455 11.9956 27.0641 12.06C27.1865 12.096 27.2688 12.1393 27.3109 12.1897C27.3574 12.2414 27.3988 12.3106 27.4351 12.3973C27.4829 12.5254 27.5659 12.671 27.6841 12.834C27.7541 12.9354 27.8174 13.0348 27.8742 13.1323C27.9354 13.2311 27.9576 13.3089 27.9409 13.3657C27.9293 13.4051 27.8919 13.4273 27.8286 13.4324C27.3808 13.4526 27.0797 13.4589 26.9251 13.4514C26.8531 13.454 26.7811 13.4565 26.7091 13.4591C26.6371 13.4616 26.5394 13.535 26.4162 13.6792C25.7097 14.4166 25.0354 15.2466 24.3932 16.1691C23.7553 17.093 23.2638 17.915 22.9187 18.6353C22.9007 18.6965 22.8906 18.7387 22.8886 18.7618C22.8909 18.7863 22.8888 18.8094 22.8824 18.8313C22.8708 18.8706 22.8331 18.8856 22.7693 18.8764C22.553 18.8364 22.356 18.8117 22.1783 18.8021C22.0037 18.7982 21.8618 18.7801 21.7525 18.748ZM30.2832 14.9462C30.3225 14.9578 30.3695 14.9194 30.424 14.8309C30.4829 14.7438 30.5836 14.5715 30.7259 14.3141C30.9135 13.9513 31.2479 13.3561 31.7291 12.5287C31.7329 12.5156 31.7333 12.5062 31.7302 12.5005C31.7284 12.4905 31.7282 12.4833 31.7295 12.4789C30.8466 13.0408 30.0197 13.6952 29.2487 14.4421L29.6283 14.5325C29.8731 14.6046 30.0535 14.7099 30.1694 14.8486C30.2103 14.9034 30.2482 14.9359 30.2832 14.9462ZM29.3742 18.6621C29.3305 18.6492 29.3138 18.5849 29.3241 18.4692C29.3632 17.9011 29.4483 17.3537 29.5797 16.827C29.6265 16.6841 29.6918 16.5109 29.7754 16.3075C29.8202 16.1876 29.8529 16.0927 29.8735 16.0228C29.8378 16.0313 29.8111 16.0329 29.7937 16.0278C29.7687 16.0157 29.7505 15.9889 29.7389 15.9475C29.6996 15.8552 29.6397 15.7924 29.5592 15.7592C29.508 15.7394 29.4475 15.7192 29.3775 15.6986C29.1458 15.6304 28.8168 15.562 28.3904 15.4934C28.3498 15.4862 28.3168 15.4931 28.2916 15.5142C28.2677 15.5309 28.1688 15.6491 27.9948 15.8686C27.981 15.8836 27.9721 15.8976 27.9682 15.9107C27.9579 15.9457 27.9764 15.9796 28.0237 16.0126C28.0723 16.0411 28.0934 16.0663 28.087 16.0882C28.0754 16.1275 27.9707 16.1846 27.7729 16.2594C27.7032 16.2863 27.608 16.3272 27.4874 16.3819C27.099 16.5716 26.8611 16.6536 26.7736 16.6278C26.7474 16.6201 26.7338 16.6018 26.7327 16.573C26.7264 16.1911 26.7514 15.8968 26.8075 15.69C26.8593 15.482 26.8552 15.3668 26.7953 15.3444C26.7353 15.322 26.7073 15.3042 26.7112 15.2911L26.7363 15.2059C26.7836 15.0773 26.8208 14.9671 26.8479 14.8753C26.8904 14.731 26.9226 14.5814 26.9445 14.4263C26.9512 14.3712 26.9597 14.3262 26.97 14.2913C26.988 14.2301 27.0221 14.195 27.0722 14.186L27.6212 14.2336C29.7369 12.163 31.2836 11.0245 32.2612 10.8183C32.3127 10.805 32.3603 10.8047 32.404 10.8176C32.4739 10.8382 32.6203 10.9621 32.8432 11.1892L33.2177 11.5632C33.3843 11.7073 33.4329 11.8973 33.3633 12.1334C33.2951 12.3651 33.1124 12.7032 32.8152 13.1478C32.0909 14.2362 31.3618 15.6392 30.628 17.3567L30.5655 17.5449C30.5256 17.6804 30.4968 17.8264 30.4793 17.9827C30.4713 18.0421 30.4609 18.0937 30.448 18.1374C30.4274 18.2074 30.3929 18.2518 30.3446 18.2709C30.0282 18.3772 29.7952 18.4749 29.6455 18.5638C29.5127 18.6435 29.4223 18.6763 29.3742 18.6621ZM33.6257 21.382C33.6082 21.3769 33.594 21.3608 33.5829 21.3338C33.4303 20.8518 33.3395 20.5471 33.3105 20.4198C33.2792 20.2681 33.2854 20.1179 33.3291 19.9692C33.3806 19.7944 33.4916 19.5871 33.6619 19.3475C33.8379 19.1048 34.0935 18.7691 34.4287 18.3405C34.7267 17.9579 35.1003 17.4717 35.5495 16.8818C35.4862 16.887 35.3457 16.9691 35.1278 17.1282C34.9143 17.2886 34.6856 17.4683 34.4417 17.6673C34.2022 17.8676 34.0147 18.0285 33.8791 18.1501L33.7487 18.2542L33.7186 18.2596C33.6661 18.2442 33.6115 18.1473 33.5547 17.9691C33.4992 17.7865 33.4516 17.6014 33.4118 17.4139C33.3733 17.222 33.3499 17.0916 33.3417 17.0227C33.3391 16.9507 33.3533 16.8622 33.3842 16.7573C33.4215 16.6305 33.4699 16.4904 33.5294 16.3369C33.5932 16.1846 33.6432 16.0473 33.6792 15.9249C33.6509 15.9403 33.5107 16.0938 33.2586 16.3854C33.0563 16.6204 32.9325 16.7668 32.8869 16.8247C32.8856 16.829 32.8828 16.8306 32.8784 16.8293C32.5674 17.208 32.3547 17.4946 32.2405 17.689C32.2309 17.7052 32.2118 17.7138 32.183 17.7148C31.9929 17.7633 31.7196 17.8848 31.3631 18.0791C31.2543 18.1421 31.1846 18.169 31.154 18.16C31.1321 18.1536 31.1297 18.065 31.1467 17.8942C31.1643 17.4956 31.1994 17.1829 31.252 16.9561C31.3588 16.5932 32.157 15.6168 33.6467 14.0269C34.1651 13.4764 34.5122 13.1202 34.6882 12.9582C34.7008 12.9477 34.7141 12.935 34.728 12.9201C34.7431 12.9008 34.7617 12.8944 34.7835 12.9008C34.8141 12.9098 35.0229 13.1043 35.4098 13.4843C35.5998 13.678 35.6897 13.7924 35.6794 13.8273C35.6755 13.8404 35.6673 13.8523 35.6547 13.8628C35.6433 13.869 35.6314 13.8773 35.6188 13.8879C35.6118 13.8953 35.6051 13.91 35.5987 13.9318C35.5923 13.9537 35.5911 13.9819 35.5952 14.0163C35.6157 14.1887 35.5777 14.4388 35.4812 14.7666L35.2989 15.3614C35.2809 15.4226 35.2727 15.4583 35.2745 15.4683L36.2566 14.7954C36.735 14.4612 37.1089 14.2079 37.3782 14.0354C37.6532 13.8599 37.867 13.747 38.0195 13.6969C38.172 13.6468 38.3182 13.6424 38.4581 13.6836C38.5762 13.7183 38.7836 13.8127 39.0803 13.9666C39.2899 14.0615 39.3889 14.1287 39.3773 14.168C39.3708 14.1899 39.3509 14.2173 39.3175 14.2502C38.9663 14.6361 38.4334 15.2678 37.719 16.1453C37.0101 17.0198 36.334 17.8801 35.6905 18.7263C35.0527 19.5694 34.7086 20.0762 34.6584 20.2467C34.652 20.2685 34.6612 20.2855 34.6862 20.2976C34.7142 20.3154 34.7244 20.3373 34.7166 20.3636C34.7051 20.4029 34.6404 20.4694 34.5225 20.563C34.3304 20.7154 34.1575 20.883 34.0039 21.0658C33.8042 21.2921 33.6782 21.3975 33.6257 21.382ZM38.2506 20.7771C38.1544 20.7488 38.0229 20.6792 37.856 20.5683C37.6891 20.4574 37.5228 20.3205 37.357 20.1577C37.1968 19.9917 37.0667 19.8204 36.9667 19.6437C36.8724 19.4639 36.8481 19.2881 36.894 19.1163C37.0281 18.7092 37.3258 18.2791 37.7871 17.8258L37.8203 17.7857L37.8253 17.7444L37.6745 17.7C37.4428 17.6318 37.3347 17.5714 37.3501 17.519C37.363 17.4752 37.4329 17.4151 37.56 17.3385C37.6166 17.3076 37.7173 17.2399 37.8621 17.1353C38.1456 16.9147 38.3269 16.7994 38.4058 16.7894L38.7476 16.7903C38.8384 16.7885 39.2092 16.4892 39.8601 15.8922C39.8884 15.8768 39.9458 15.8272 40.0322 15.7434L40.0361 15.7302C39.9116 15.7173 39.8403 15.7415 39.8223 15.8027C39.8146 15.8289 39.7954 15.8375 39.7648 15.8285C39.68 15.794 39.4865 15.6444 39.1844 15.3797C38.8481 15.0859 38.6919 14.8902 38.7159 14.7928C38.7236 14.7665 38.7475 14.7498 38.7876 14.7426C39.4759 14.6318 40.2244 14.6146 41.0332 14.6913C41.9434 14.7788 42.7154 14.9158 43.3493 15.1025C44.1449 15.3368 44.5156 15.5624 44.4613 15.7791C44.4229 15.8771 44.3896 15.9742 44.3613 16.0704C44.3219 16.2203 44.2935 16.3568 44.2762 16.48C44.2603 16.5988 44.2375 16.7085 44.2079 16.8091C44.1602 16.9708 44.0774 17.0343 43.9594 16.9996C43.8063 16.9545 43.5418 16.7317 43.1657 16.3311C43.1446 16.3059 43.1012 16.2837 43.0357 16.2644C42.9395 16.236 42.8217 16.2085 42.6823 16.1817C42.4979 16.1464 42.2458 16.0911 41.9259 16.0159C41.7003 15.959 41.5766 15.9677 41.5548 16.0421C41.547 16.0683 41.5426 16.1074 41.5416 16.1593C41.5462 16.2082 41.5344 16.2807 41.506 16.3769C41.4854 16.4468 41.4428 16.5269 41.3783 16.6172C41.3302 16.6838 41.2967 16.7167 41.2779 16.7159C41.2648 16.7121 41.2493 16.7003 41.2313 16.6808C41.2176 16.6625 41.1946 16.6439 41.1622 16.6248C41.1404 16.6184 41.0762 16.6589 40.9697 16.7463C40.8827 16.8157 40.8225 16.8669 40.7891 16.8998C40.7865 16.9085 40.8093 16.92 40.8574 16.9341C40.9705 16.9532 41.0555 16.9711 41.1123 16.9878C41.2085 17.0162 41.2701 17.0652 41.2971 17.1349C41.3297 17.2015 41.3509 17.2909 41.3606 17.403C41.3878 17.601 41.4474 17.8181 41.5394 18.0542C41.5823 18.1667 41.5974 18.2447 41.5845 18.2884C41.5716 18.3321 41.4902 18.3343 41.3403 18.2949L41.2242 18.2536C40.9562 18.1794 40.6898 18.1081 40.4249 18.0396C40.1657 17.968 39.9437 17.9478 39.7587 17.9788C39.5795 18.0068 39.3741 18.1316 39.1425 18.3532C38.9166 18.5717 38.6183 18.9233 38.2476 19.408L38.2333 19.4323C38.2227 19.5005 38.2721 19.5506 38.3814 19.5828C38.4601 19.606 38.5273 19.6115 38.5831 19.5995C39.3599 19.3816 39.8812 19.2406 40.1472 19.1764C40.336 19.1322 40.4653 19.1204 40.5353 19.141C40.6009 19.1603 40.6165 19.2362 40.5823 19.3687C40.4806 19.714 40.421 19.9649 40.4034 20.1212L40.3829 20.215C40.3714 20.2543 40.3473 20.2876 40.3108 20.3149C40.2321 20.3725 39.8646 20.4828 39.2085 20.6459C38.7713 20.7594 38.452 20.8032 38.2506 20.7771ZM44.4725 18.1127L45.0315 17.9566C45.5595 17.8413 46.0766 17.6824 46.5829 17.4799C46.5767 17.4686 46.567 17.461 46.5539 17.4572C45.9195 17.3369 45.5368 17.2812 45.4059 17.2901C45.3138 17.2963 45.2435 17.3254 45.1949 17.3776C44.7333 17.7833 44.4929 18.019 44.4736 18.0845L44.4725 18.1127ZM40.8946 22.2042C40.8509 22.1913 40.8165 21.9935 40.7914 21.6108C40.7676 21.2238 40.7737 20.969 40.8098 20.8466C41.3504 20.1079 41.6649 19.6851 41.7534 19.5781C41.8268 19.4905 41.8686 19.4291 41.8789 19.3942C41.8822 19.3666 41.8694 19.3296 41.8403 19.283C41.711 19.0929 41.6554 18.9673 41.6734 18.9061C41.685 18.8667 41.7213 18.8323 41.7822 18.8027C42.0788 18.6668 42.2828 18.6033 42.3941 18.6124C42.4448 18.6178 42.4875 18.6018 42.5222 18.5646C42.5626 18.5242 42.6738 18.4049 42.8556 18.2067C43.4222 17.5896 43.7565 17.2367 43.8586 17.1481C43.8895 17.1239 43.9081 17.1009 43.9146 17.079C43.9223 17.0528 43.8106 16.8512 43.5795 16.4744C43.5628 16.4505 43.5258 16.3826 43.4685 16.2707C43.458 16.2581 43.4559 16.2408 43.4623 16.219C43.492 16.1184 43.7195 16.0477 44.1449 16.0066C44.5759 15.9625 45.0811 15.9569 45.6606 15.9898C46.4077 16.034 47.026 16.1282 47.5157 16.2724C48.0971 16.4436 48.3664 16.6583 48.3236 16.9165C48.2873 17.0721 48.2499 17.2155 48.2112 17.3466C48.1404 17.5871 48.0536 17.8014 47.9506 17.9896C47.8521 18.1791 47.6764 18.3483 47.4235 18.4971C47.1719 18.6416 46.8206 18.778 46.3694 18.9065C45.9196 19.0305 45.2964 19.1867 44.4998 19.375C44.417 19.3981 44.3662 19.4092 44.3474 19.4085C44.2872 19.4192 44.2267 19.4394 44.1657 19.469L45.0498 19.7578C45.4769 19.8884 45.8309 20.0092 46.1117 20.1204C46.3925 20.2316 46.5953 20.3578 46.72 20.4991C46.8459 20.6359 46.8716 20.8311 46.7969 21.0847C46.7351 21.2945 46.5994 21.5539 46.3897 21.8627C46.3732 21.8863 46.343 21.9083 46.299 21.9286C46.2607 21.9458 46.2197 21.948 46.1759 21.9351C46.1322 21.9222 46.091 21.8768 46.0522 21.7989C46.0257 21.7436 45.9923 21.6957 45.9519 21.6554C45.865 21.5633 45.6296 21.4512 45.2457 21.3191C44.4187 21.0138 43.818 20.787 43.4435 20.6388C43.1465 20.5181 42.9281 20.4371 42.7882 20.3959C42.6702 20.3612 42.5922 20.3596 42.5544 20.3912C42.5166 20.4228 42.3286 20.6739 41.9906 21.1444C41.9491 21.2368 41.8539 21.3584 41.705 21.5093C41.3489 21.8795 41.0788 22.1112 40.8946 22.2042Z" fill="white"/>
</svg>
