<svg width="52" height="26" viewBox="0 0 52 26" fill="none" xmlns="http://www.w3.org/2000/svg">
<path d="M5.82951 18.1856C5.90544 18.1672 6.05759 18.0073 6.28596 17.7057C6.51908 17.4031 6.77643 17.0242 7.05802 16.5691C7.34435 16.1128 7.61486 15.6328 7.86956 15.1289C8.12311 14.6203 8.32079 14.1403 8.4626 13.6889C8.60801 13.2317 8.64794 12.8678 8.58238 12.5973C8.48923 12.2129 8.16741 12.0874 7.61694 12.2208C7.49831 12.2496 7.2496 12.3325 6.87083 12.4695C6.82208 12.4964 6.79698 12.5276 6.79554 12.5631C6.76303 12.8021 6.71225 13.0279 6.64322 13.2406C6.40446 13.9968 6.12849 15.6463 5.81528 18.1891L5.82951 18.1856ZM4.44304 24.7165C4.41456 24.7234 4.39515 24.7055 4.3848 24.6628L4.34706 24.476C4.33255 24.3539 4.30006 24.1784 4.2496 23.9494C4.14897 23.4513 4.13744 22.7507 4.215 21.8477C4.25285 21.3612 4.25798 21.061 4.23037 20.9471C4.21657 20.8902 4.19493 20.8527 4.16545 20.8348C3.46389 20.4069 3.0924 20.1076 3.051 19.9367C3.02224 19.8181 3.15735 19.7226 3.45631 19.6501C3.89778 19.523 4.20394 19.4388 4.37477 19.3974L5.22607 13.4258C5.09794 13.4569 4.75669 13.728 4.20231 14.2391C3.66822 14.7303 3.39671 15.0197 3.38778 15.1073C3.53115 15.0976 3.64792 15.0819 3.73808 15.0601L3.89296 15.015C3.94515 15.0023 3.97471 15.0102 3.98161 15.0387C3.99081 15.0767 3.98368 15.1613 3.96024 15.2926C3.94009 15.4582 3.91498 15.7381 3.88491 16.1323C3.88102 16.1785 3.87426 16.2128 3.86462 16.2352C3.85858 16.2517 3.83184 16.2657 3.78438 16.2772C3.6101 16.3044 3.47787 16.3289 3.38771 16.3508C3.26907 16.3795 3.17129 16.3907 3.09436 16.3842C2.95818 16.382 2.69985 16.2386 2.31938 15.954C2.11433 15.8128 1.92244 15.6533 1.74371 15.4756C1.72372 15.4553 1.70546 15.4421 1.68892 15.4361L1.64062 15.2368C2.05021 14.4392 2.58511 13.7544 3.24533 13.1824C3.90914 12.6045 4.61241 12.1376 5.35516 11.7818C6.1015 11.42 6.78312 11.1644 7.40002 11.0149C8.08811 10.8481 8.61363 10.8087 8.97657 10.8965C9.40796 11.0181 9.68806 11.3446 9.81687 11.8761C9.97788 12.5404 9.90176 13.408 9.5885 14.4787C9.27884 15.5435 8.78324 16.6081 8.10171 17.6726C7.42378 18.7312 6.60256 19.6236 5.63806 20.3497C5.5952 20.3802 5.57183 20.4185 5.56795 20.4647C5.54896 20.6351 5.52823 20.8813 5.50578 21.2032C5.4521 21.9146 5.44424 22.3486 5.48219 22.5052C5.49139 22.5432 5.52144 22.5635 5.57235 22.5663C5.70608 22.5791 5.7764 22.5997 5.7833 22.6282C5.74173 22.8091 5.68103 23.0147 5.60121 23.2451C5.3872 23.8546 5.0148 24.3393 4.48402 24.699L4.44304 24.7165ZM12.5085 16.5142C12.5512 16.5038 12.5741 16.443 12.5773 16.3317C12.5852 16.2193 12.5862 16.0055 12.5802 15.6904C12.5596 15.2533 12.5507 14.5219 12.5533 13.4964C12.5499 13.4821 12.5452 13.4732 12.5393 13.4696C12.5323 13.4613 12.5282 13.4547 12.527 13.45C12.0094 14.4446 11.5933 15.495 11.2786 16.6013L11.6791 16.4816C11.9449 16.4172 12.1687 16.4182 12.3506 16.4846C12.4179 16.5135 12.4705 16.5234 12.5085 16.5142ZM13.6579 20.4484C13.6105 20.4599 13.5605 20.4092 13.508 20.2963C13.2396 19.7484 13.0251 19.195 12.8645 18.636C12.8313 18.4783 12.7989 18.2826 12.7675 18.0491C12.7447 17.9139 12.7242 17.8084 12.7058 17.7325C12.6772 17.7595 12.6534 17.7753 12.6344 17.7799C12.6048 17.7821 12.5735 17.767 12.5406 17.7348C12.4546 17.6703 12.3653 17.6441 12.2729 17.6565C12.2148 17.6656 12.1478 17.6793 12.0719 17.6977C11.8203 17.7586 11.4785 17.8717 11.0462 18.0367C11.0046 18.0518 10.9778 18.0759 10.9657 18.109C10.9525 18.1373 10.9241 18.2999 10.8805 18.5969C10.8756 18.6181 10.8749 18.6359 10.8783 18.6501C10.8875 18.6881 10.9229 18.7097 10.9845 18.7149C11.0449 18.7153 11.0779 18.7274 11.0837 18.7511C11.094 18.7938 11.0275 18.9029 10.8841 19.0783C10.8339 19.1407 10.7676 19.2296 10.685 19.3451C10.4265 19.7293 10.2497 19.9329 10.1548 19.9559C10.1263 19.9628 10.1039 19.9532 10.0875 19.927C9.87686 19.5761 9.74214 19.2898 9.68334 19.0679C9.6198 18.8471 9.55423 18.7425 9.48664 18.7538C9.41906 18.7652 9.38354 18.7637 9.38009 18.7495L9.35766 18.657C9.33265 18.5123 9.30807 18.3901 9.28392 18.2905C9.24596 18.1339 9.19557 17.9778 9.13274 17.8222C9.10945 17.7675 9.0932 17.7212 9.084 17.6833C9.0679 17.6168 9.0807 17.566 9.1224 17.5308L9.65714 17.2806C10.5093 14.2254 11.3336 12.34 12.1298 11.6245C12.1704 11.5845 12.2144 11.5588 12.2618 11.5473C12.3378 11.5289 12.54 11.5653 12.8686 11.6565L13.4164 11.8025C13.6482 11.8468 13.7952 11.9971 13.8573 12.2534C13.9183 12.5049 13.9301 12.9165 13.8928 13.4882C13.8046 14.8862 13.8806 16.5785 14.1209 18.5651L14.1638 18.7733C14.1995 18.9204 14.2511 19.0712 14.3187 19.2256C14.3431 19.285 14.3611 19.3384 14.3726 19.3859C14.391 19.4618 14.3829 19.5216 14.3482 19.5651C14.1118 19.8334 13.948 20.049 13.8568 20.2118C13.7764 20.3569 13.7101 20.4357 13.6579 20.4484ZM17.8044 15.2307C17.8471 15.2203 17.8701 15.1595 17.8732 15.0482C17.8811 14.9357 17.8821 14.722 17.8761 14.4069C17.8555 13.9698 17.8466 13.2384 17.8492 12.2128C17.8458 12.1986 17.8411 12.1897 17.8352 12.1861C17.8282 12.1778 17.8241 12.1712 17.8229 12.1665C17.3053 13.1611 16.8892 14.2115 16.5745 15.3177L16.975 15.1981C17.2408 15.1336 17.4646 15.1347 17.6465 15.2011C17.7138 15.23 17.7664 15.2399 17.8044 15.2307ZM18.9538 19.1649C18.9064 19.1764 18.8564 19.1257 18.8039 19.0128C18.5355 18.4649 18.321 17.9115 18.1604 17.3525C18.1272 17.1948 18.0948 16.9991 18.0634 16.7656C18.0406 16.6304 18.0201 16.5249 18.0017 16.449C17.9731 16.476 17.9493 16.4918 17.9303 16.4964C17.9007 16.4986 17.8694 16.4835 17.8365 16.4513C17.7505 16.3867 17.6613 16.3606 17.5688 16.373C17.5107 16.3821 17.4437 16.3958 17.3678 16.4142C17.1162 16.4751 16.7744 16.5881 16.3421 16.7532C16.3005 16.7683 16.2737 16.7924 16.2616 16.8255C16.2484 16.8538 16.22 17.0164 16.1764 17.3134C16.1715 17.3346 16.1708 17.3524 16.1742 17.3666C16.1834 17.4046 16.2188 17.4262 16.2804 17.4314C16.3408 17.4318 16.3738 17.4439 16.3796 17.4676C16.3899 17.5103 16.3234 17.6194 16.18 17.7948C16.1298 17.8572 16.0635 17.9461 15.9809 18.0616C15.7224 18.4458 15.5456 18.6494 15.4507 18.6724C15.4222 18.6793 15.3998 18.6697 15.3834 18.6435C15.1728 18.2926 15.038 18.0063 14.9792 17.7844C14.9157 17.5636 14.8501 17.4589 14.7825 17.4703C14.715 17.4817 14.6794 17.4802 14.676 17.466L14.6536 17.3734C14.6286 17.2288 14.604 17.1066 14.5798 17.007C14.5419 16.8504 14.4915 16.6943 14.4286 16.5387C14.4054 16.484 14.3891 16.4377 14.3799 16.3998C14.3638 16.3333 14.3766 16.2825 14.4183 16.2473L14.953 15.9971C15.8052 12.9418 16.6295 11.0565 17.4257 10.341C17.4663 10.301 17.5103 10.2753 17.5577 10.2638C17.6337 10.2454 17.8359 10.2818 18.1645 10.373L18.7124 10.519C18.9442 10.5633 19.0911 10.7136 19.1532 10.9699C19.2142 11.2214 19.226 11.633 19.1887 12.2047C19.1005 13.6027 19.1765 15.295 19.4168 17.2816L19.4597 17.4898C19.4954 17.6369 19.547 17.7877 19.6146 17.9421C19.639 18.0015 19.657 18.0549 19.6685 18.1024C19.6869 18.1783 19.6788 18.2381 19.6441 18.2816C19.4077 18.5499 19.2439 18.7655 19.1527 18.9283C19.0723 19.0733 19.006 19.1522 18.9538 19.1649ZM21.913 18.4703C21.8276 18.491 21.7395 18.4696 21.6488 18.4062C21.418 18.221 21.2237 18.0721 21.0658 17.9597C20.8514 17.8006 20.6942 17.6704 20.5943 17.569C20.4885 17.464 20.4149 17.3261 20.3735 17.1553C20.2953 16.8326 20.2626 16.107 20.2755 14.9785C20.2847 13.69 20.2875 12.5614 20.2839 11.5926C20.2946 11.575 20.2977 11.5566 20.2931 11.5376C20.2885 11.5187 20.2875 11.4938 20.2901 11.463C20.2966 11.3861 20.2981 11.3405 20.2947 11.3263C20.2912 11.312 20.2889 11.3025 20.2878 11.2978C20.2902 11.2871 20.2911 11.2493 20.2904 11.1841L20.3029 11.1735L20.2977 11.1522C20.3001 11.1415 20.2996 11.1291 20.2962 11.1149C20.2916 11.0959 20.294 11.0853 20.3035 11.083L20.2966 11.0545L20.302 11.0456L20.2968 11.0243L20.3022 11.0154L20.2971 10.9941L20.3024 10.9852C20.2369 10.7147 20.3122 10.5382 20.5283 10.4557C20.7457 10.3578 20.9699 10.2256 21.2009 10.0591C21.3105 9.97224 21.3961 9.92134 21.4578 9.90639C21.5147 9.89259 21.5536 9.9284 21.5743 10.0138C21.6168 10.1894 21.6128 10.6702 21.5621 11.4562C21.5042 12.4198 21.4825 13.7916 21.4969 15.5717C21.5034 15.8264 21.5246 16.08 21.5607 16.3325C21.563 16.342 21.5671 16.3485 21.573 16.3521C21.8471 15.9491 22.4576 14.3943 23.4044 11.688C23.9751 10.0625 24.2771 9.23567 24.3104 9.20749C24.6551 9.03351 24.9079 8.88433 25.0687 8.75996C25.1674 8.6908 25.2442 8.64457 25.2988 8.62128C25.4222 8.59138 25.4971 8.631 25.5236 8.74014C25.5972 9.04385 25.504 9.65427 25.2439 10.5714C24.7615 12.2709 24.2059 13.8551 23.5771 15.3238C23.0971 16.5354 22.7471 17.3512 22.5274 17.7712C22.3076 18.1913 22.1029 18.4243 21.913 18.4703ZM29.4834 19.0773C29.2793 19.1267 29.1468 19.0257 29.0859 18.7742C28.9881 18.3709 29.0093 17.4011 29.1494 15.8649C29.1546 15.8033 29.1515 15.7488 29.14 15.7014C28.6402 16.6867 28.1669 17.2837 27.7201 17.4925L27.3834 17.6268C27.0115 17.7923 26.6975 17.9061 26.4412 17.9682C26.2372 18.0177 26.047 18.0311 25.8707 18.0085C25.6589 17.9845 25.4839 17.8636 25.3457 17.6459L25.2245 17.4567L25.0727 16.8303C25.0836 16.7925 25.0824 16.7149 25.069 16.5976C24.9677 16.0343 25.0183 15.1755 25.2208 14.0211C25.4575 12.7378 25.8224 11.4863 26.3155 10.2665C26.8134 9.04551 27.3812 7.98848 28.0189 7.09538C28.6554 6.19754 29.3069 5.60002 29.9734 5.30283C29.9877 5.29938 29.9989 5.29413 30.0073 5.28709C30.0358 5.28019 30.0607 5.26912 30.0821 5.25388L30.2458 5.2142C30.2565 5.21664 30.279 5.21621 30.3134 5.21291C30.5222 5.1623 30.7219 5.2194 30.9126 5.38421C31.4375 5.82973 31.7259 6.07636 31.7777 6.12411C31.8917 6.24217 31.9677 6.37951 32.0056 6.53611C32.0747 6.82083 31.9845 7.24712 31.7353 7.81496C31.7087 7.89175 31.6935 7.94316 31.6898 7.96919C31.6908 7.99406 31.6835 8.01592 31.668 8.03476C31.6561 8.0477 31.5919 8.07329 31.4756 8.11153C31.3367 8.16027 31.0564 8.26839 30.6348 8.43589C30.5754 8.46033 30.5243 8.47773 30.4816 8.48808C30.3915 8.50993 30.3395 8.49239 30.3257 8.43544C30.305 8.35002 30.3882 8.051 30.5755 7.53837C30.6303 7.32914 30.6376 7.14149 30.5973 6.9754C30.5663 6.84727 30.519 6.74567 30.4556 6.67061C30.397 6.59439 30.3392 6.56318 30.2822 6.57698L30.2412 6.59445C29.5323 7.19333 28.9152 7.94327 28.39 8.84429C27.8648 9.7453 27.4382 10.6802 27.1103 11.6489C26.7824 12.6177 26.5568 13.5114 26.4337 14.33C26.3153 15.1475 26.3038 15.7532 26.3993 16.1471C26.4775 16.4697 26.6186 16.6064 26.8227 16.5569C27.1548 16.4764 27.6078 15.9094 28.1815 14.856C28.7878 13.7092 29.3021 12.6802 29.7243 11.769C29.5298 11.8162 29.1458 12.0147 28.5725 12.3647C28.2037 12.5847 27.947 12.7173 27.8022 12.7624C27.7595 12.7728 27.7233 12.779 27.6937 12.7812C27.6676 12.7774 27.6356 12.7802 27.5977 12.7894L27.4588 12.8381C27.4256 12.8461 27.4049 12.8336 27.3969 12.8003C27.3785 12.7244 27.4264 12.3209 27.5406 11.5899C27.5563 11.5509 27.6682 11.4735 27.8762 11.3578C28.0891 11.2409 28.6186 10.9794 29.4647 10.5734C30.1337 10.2656 30.5868 10.0829 30.8241 10.0254C30.9569 9.99318 31.0564 9.98916 31.1226 10.0133C31.1935 10.0363 31.269 10.0783 31.3491 10.1393C31.4621 10.2325 31.6172 10.323 31.8143 10.4109C31.9335 10.4674 32.0456 10.5257 32.1506 10.5856C32.2603 10.6445 32.3226 10.7047 32.3376 10.7664C32.3479 10.8091 32.3251 10.8498 32.2692 10.8885C31.8647 11.1473 31.5887 11.3147 31.4413 11.3906C31.3759 11.4316 31.3104 11.4725 31.245 11.5135C31.1796 11.5545 31.1284 11.6749 31.0914 11.8748C30.8315 12.9376 30.651 14.0691 30.55 15.2692C30.4537 16.4682 30.4386 17.4943 30.5047 18.3474C30.5208 18.4139 30.5341 18.4584 30.5446 18.481C30.5599 18.5024 30.5704 18.525 30.5761 18.5487C30.5865 18.5914 30.5596 18.6255 30.4954 18.6511C30.2734 18.7301 30.0774 18.8127 29.9074 18.8992C29.7434 18.9892 29.602 19.0485 29.4834 19.0773ZM35.3578 10.9765C35.4005 10.9661 35.4234 10.9053 35.4266 10.794C35.4345 10.6815 35.4354 10.4678 35.4294 10.1527C35.4089 9.71556 35.3999 8.9842 35.4026 7.95863C35.3991 7.94439 35.3945 7.93548 35.3886 7.93188C35.3815 7.92354 35.3774 7.917 35.3763 7.91225C34.8587 8.90688 34.4425 9.9573 34.1278 11.0635L34.5284 10.9438C34.7941 10.8794 35.018 10.8805 35.1999 10.9469C35.2672 10.9758 35.3198 10.9857 35.3578 10.9765ZM36.5072 14.9107C36.4597 14.9222 36.4098 14.8715 36.3573 14.7586C36.0888 14.2107 35.8743 13.6573 35.7137 13.0983C35.6805 12.9406 35.6482 12.7449 35.6167 12.5114C35.594 12.3762 35.5734 12.2707 35.555 12.1947C35.5264 12.2218 35.5026 12.2376 35.4836 12.2422C35.454 12.2443 35.4227 12.2293 35.3898 12.1971C35.3038 12.1325 35.2146 12.1064 35.1221 12.1188C35.064 12.1278 34.997 12.1416 34.9211 12.16C34.6696 12.2209 34.3277 12.3339 33.8954 12.499C33.8539 12.5141 33.8271 12.5382 33.815 12.5712C33.8018 12.5996 33.7733 12.7622 33.7298 13.0591C33.7249 13.0804 33.7241 13.0982 33.7276 13.1124C33.7368 13.1504 33.7722 13.172 33.8337 13.1771C33.8941 13.1776 33.9272 13.1897 33.9329 13.2134C33.9433 13.2561 33.8768 13.3652 33.7334 13.5406C33.6832 13.603 33.6168 13.6919 33.5343 13.8074C33.2757 14.1916 33.099 14.3952 33.0041 14.4182C32.9756 14.4251 32.9532 14.4155 32.9368 14.3893C32.7261 14.0384 32.5914 13.752 32.5326 13.5302C32.4691 13.3094 32.4035 13.2047 32.3359 13.2161C32.2683 13.2274 32.2328 13.226 32.2293 13.2118L32.2069 13.1192C32.1819 12.9746 32.1573 12.8524 32.1332 12.7528C32.0952 12.5962 32.0448 12.4401 31.982 12.2845C31.9587 12.2298 31.9425 12.1835 31.9333 12.1456C31.9172 12.0791 31.93 12.0283 31.9717 11.9931L32.5064 11.7429C33.3586 8.68764 34.1828 6.80227 34.9791 6.08677C35.0196 6.0468 35.0636 6.02106 35.1111 6.00956C35.187 5.99116 35.3893 6.02755 35.7178 6.11874L36.2657 6.2648C36.4975 6.30911 36.6445 6.45939 36.7066 6.71564C36.7675 6.96715 36.7794 7.37877 36.7421 7.95052C36.6538 9.34852 36.7299 11.0408 36.9702 13.0274L37.0131 13.2356C37.0488 13.3827 37.1004 13.5335 37.1679 13.6879C37.1924 13.7473 37.2104 13.8007 37.2219 13.8482C37.2403 13.9241 37.2321 13.9838 37.1975 14.0274C36.9611 14.2957 36.7973 14.5113 36.7061 14.674C36.6257 14.8191 36.5594 14.898 36.5072 14.9107ZM37.991 14.845C37.953 14.8542 37.9189 14.8273 37.8885 14.7643C37.8534 14.7024 37.7858 14.5581 37.6856 14.3311C37.6169 14.172 37.5739 14.0568 37.5566 13.9856C37.4681 13.6202 37.5087 12.9069 37.6786 11.8459C37.8426 10.7812 38.0026 9.86571 38.1585 9.09941C38.3192 8.33197 38.4832 7.67172 38.6506 7.11868C38.8169 6.5609 38.9427 6.27166 39.0282 6.25095C39.3205 6.27556 39.5734 6.26199 39.787 6.21023C39.8439 6.19643 39.8897 6.17781 39.9242 6.15438C39.9488 6.19363 39.9943 6.20521 40.0607 6.18911C40.1319 6.17186 40.1761 6.19883 40.1934 6.27001C40.2106 6.34119 40.2542 6.37585 40.3241 6.37398C40.3702 6.37787 40.4111 6.45336 40.4468 6.60047C40.4675 6.68589 40.4929 6.85306 40.5231 7.10198C40.558 7.34974 40.5889 7.5809 40.6158 7.79545C40.6415 8.00526 40.652 8.35943 40.6472 8.85798C40.6425 9.35653 40.6662 9.76528 40.7183 10.0842C40.8179 9.74861 41.0392 8.8685 41.3822 7.44391C41.8024 5.67406 42.0004 4.65641 41.9762 4.39095C41.9718 4.35184 41.9797 4.31222 42.0002 4.27211C42.0253 4.23084 42.0569 4.2056 42.0949 4.1964C42.1138 4.1918 42.1346 4.19432 42.157 4.20395C42.7327 4.50654 43.0707 4.6884 43.1709 4.74952C43.29 4.82617 43.3587 4.90246 43.3771 4.97839C43.3944 5.04957 43.3837 5.14009 43.345 5.24995C43.3507 5.27368 42.9371 7.03943 42.1042 10.5472C41.7744 11.9435 41.5636 12.6804 41.4718 12.7579C41.4432 12.7849 41.3285 12.8403 41.1278 12.9241C40.7189 13.1237 40.4315 13.2436 40.2654 13.2839C40.1135 13.3207 39.9887 13.3032 39.8909 13.2314C39.7932 13.1597 39.7138 12.998 39.6528 12.7465C39.539 12.2767 39.4541 11.1593 39.3981 9.39435L39.3767 9.39952C38.9583 11.2594 38.7543 12.2107 38.7646 12.2534C38.7681 12.2676 38.7923 12.2743 38.8373 12.2735C38.8859 12.2667 38.9137 12.2776 38.9206 12.306C38.9252 12.325 38.9226 12.3558 38.9128 12.3983C38.8456 12.6809 38.7977 12.9186 38.7691 13.1114C38.7319 13.3516 38.6855 13.5336 38.6302 13.6576C38.546 13.8287 38.4745 13.9792 38.4155 14.109C38.1894 14.5858 38.0479 14.8312 37.991 14.845ZM47.5239 13.2882C47.5049 13.2928 47.4701 13.2736 47.4195 13.2306C46.9527 12.9217 46.6646 12.7177 46.5552 12.6186C46.4505 12.5184 46.3792 12.39 46.3413 12.2334C46.309 12.1005 46.2873 11.9174 46.2759 11.684C46.2675 11.5454 46.2532 11.383 46.2333 11.1969L46.2156 11.1861C45.7615 11.9041 45.3566 12.3062 45.0007 12.3925C44.8204 12.4362 44.6377 12.3975 44.4526 12.2766C43.9564 11.9497 43.6118 11.6991 43.4188 11.5248C43.2247 11.3458 43.092 11.1092 43.0207 10.8149C42.9425 10.4923 42.9516 10.0429 43.0481 9.46683C43.2479 8.36333 43.5764 7.39695 44.0336 6.56769C44.4956 5.73728 45.0019 5.06944 45.5527 4.56416C46.076 4.09067 46.5465 3.80331 46.9641 3.7021C47.5572 3.55834 47.9182 3.75221 48.0471 4.28369C48.1264 4.61113 48.1073 5.05036 47.9896 5.60139C47.9121 6.00704 47.8762 6.30463 47.8819 6.49416C47.8868 6.63868 47.8726 6.71496 47.8394 6.72301C47.8252 6.72646 47.8063 6.721 47.7827 6.70662C47.0825 6.24325 46.7124 5.92853 46.6721 5.76244C46.6525 5.68176 46.6555 5.60066 46.681 5.51913L46.6887 5.42681C46.6365 5.43946 46.5537 5.51229 46.4402 5.6453C46.2133 5.91131 46.037 6.13743 45.9113 6.32364C45.0458 7.60354 44.5485 8.74397 44.4193 9.74495C44.3641 10.1804 44.3635 10.5096 44.4175 10.7326C44.452 10.875 44.5013 10.9434 44.5653 10.938C44.6365 10.9207 44.8914 10.5525 45.33 9.83323C45.638 9.32147 45.7898 9.04603 45.7854 9.00692C45.7641 9.00203 45.7363 9.00123 45.7019 9.00454C45.6402 9.01949 45.5654 9.04264 45.4776 9.07398C45.3945 9.10417 45.3197 9.12732 45.2532 9.14342C45.1809 9.15593 45.1389 9.14852 45.1273 9.1212C45.1286 9.10581 45.1888 8.87768 45.3081 8.4368C45.3676 8.22642 45.4185 8.07342 45.4606 7.9778C45.5063 7.87628 45.5756 7.79921 45.6683 7.74658C45.7599 7.68921 45.9067 7.62099 46.1086 7.54191C46.2547 7.48138 46.4388 7.40159 46.661 7.30252C47.1757 7.04213 47.8341 6.80469 48.6362 6.59019C48.8236 6.55483 48.9678 6.59021 49.0689 6.69634C49.17 6.80247 49.2983 6.98992 49.4539 7.25869C49.6529 7.58225 49.7547 7.75352 49.7593 7.7725C49.765 7.79623 49.7537 7.81154 49.7252 7.81845C49.6967 7.82535 49.6529 7.83095 49.5936 7.83526C49.538 7.83368 49.4241 7.85121 49.2522 7.88787C49.0314 7.95142 48.7276 8.03509 48.3408 8.13889C47.9587 8.24154 47.7451 8.30336 47.7 8.32435C47.6548 8.34534 47.6285 8.38186 47.621 8.43392C47.5122 9.89218 47.5298 10.9807 47.6739 11.6994C47.7045 11.8879 47.713 12.0165 47.6995 12.085C47.606 12.5699 47.5604 12.9 47.5627 13.0753C47.57 13.2092 47.5571 13.2802 47.5239 13.2882Z" fill="white"/>
</svg>
