<svg width="20" height="22" viewBox="0 0 20 22" fill="none" xmlns="http://www.w3.org/2000/svg">
<path d="M11 10.9999L18.07 18.0699C17.1446 19.0038 16.0434 19.7451 14.8299 20.251C13.6164 20.7569 12.3147 21.0174 11 21.0174C9.68528 21.0174 8.38359 20.7569 7.1701 20.251C5.95661 19.7451 4.85538 19.0038 3.93 18.0699C-2.38419e-07 14.1699 -2.38419e-07 7.83992 3.93 3.92992C7.83 -7.82013e-05 14.16 -7.82013e-05 18.07 3.92992L11 10.9999ZM18 8.99992C17.4696 8.99992 16.9609 9.21064 16.5858 9.58571C16.2107 9.96078 16 10.4695 16 10.9999C16 11.5304 16.2107 12.0391 16.5858 12.4141C16.9609 12.7892 17.4696 12.9999 18 12.9999C18.5304 12.9999 19.0391 12.7892 19.4142 12.4141C19.7893 12.0391 20 11.5304 20 10.9999C20 10.4695 19.7893 9.96078 19.4142 9.58571C19.0391 9.21064 18.5304 8.99992 18 8.99992Z" fill="white"/>
</svg>
