<svg width="20" height="20" viewBox="0 0 20 20" fill="none" xmlns="http://www.w3.org/2000/svg">
<path fill-rule="evenodd" clip-rule="evenodd" d="M19.2314 13.8456C19.2314 18.0914 15.3857 19.9999 9.99995 19.9999C4.61423 19.9999 0.76709 18.0914 0.76709 13.8756C0.76709 9.83994 2.53138 7.54422 6.05995 5.46851C7.19712 6.32301 8.58132 6.78455 10.0038 6.78352C11.4262 6.78249 12.8097 6.31894 13.9457 5.46279C17.4699 7.51708 19.2314 9.81279 19.2314 13.8456ZM12.4899 4.29708L14.3042 1.46136C14.3826 1.31086 14.4213 1.1429 14.4169 0.973288C14.4124 0.803674 14.3649 0.637985 14.2787 0.491816C14.1925 0.345646 14.0706 0.223803 13.9244 0.137753C13.7781 0.0517025 13.6124 0.00427572 13.4428 -6.42663e-05H6.91852C6.73756 -0.00349655 6.55906 0.042248 6.40206 0.132292C6.24505 0.222335 6.11543 0.353302 6.02701 0.511227C5.93859 0.669151 5.89469 0.848112 5.89998 1.02903C5.90528 1.20994 5.95958 1.38603 6.05709 1.53851L7.5528 4.32422C9.06852 5.23136 10.9814 5.22279 12.4899 4.29708Z" fill="black"/>
</svg>
