<svg width="22" height="20" viewBox="0 0 22 20" fill="none" xmlns="http://www.w3.org/2000/svg">
<path d="M21 12.0001H20C20 8.1301 16.87 5.0001 13 5.0001H12V3.7301C12.3041 3.55452 12.5566 3.30196 12.7322 2.99782C12.9077 2.69369 13.0001 2.34869 13 1.99753C12.9999 1.64637 12.9074 1.30143 12.7317 0.997381C12.556 0.693334 12.3033 0.440908 11.9991 0.265483C11.6949 0.0900593 11.3499 -0.00217778 10.9987 -0.00195271C10.6476 -0.00172765 10.3026 0.0909518 9.99867 0.266766C9.69469 0.44258 9.44236 0.69533 9.26705 0.999601C9.09174 1.30387 8.99964 1.64894 9 2.0001C9 2.7401 9.4 3.3901 10 3.7301V5.0001H9C5.13 5.0001 2 8.1301 2 12.0001H1C0.45 12.0001 0 12.4501 0 13.0001V16.0001C0 16.5501 0.45 17.0001 1 17.0001H2V18.0001C2 18.5305 2.21071 19.0392 2.58579 19.4143C2.96086 19.7894 3.46957 20.0001 4 20.0001H18C19.11 20.0001 20 19.1101 20 18.0001V17.0001H21C21.55 17.0001 22 16.5501 22 16.0001V13.0001C22 12.4501 21.55 12.0001 21 12.0001ZM7.68 15.0401L6.5 13.8601L5.32 15.0401L4.14 13.8601L6.5 11.5001L8.86 13.8601L7.68 15.0401ZM16.68 15.0401L15.5 13.8601L14.32 15.0401L13.14 13.8601L15.5 11.5001L17.86 13.8601L16.68 15.0401Z" fill="white"/>
</svg>
